<svg xmlns="http://www.w3.org/2000/svg" width="500" height="350" viewBox="0 0 500 350"><g fill="none" stroke="#000" stroke-miterlimit="10"><path stroke-width="36" d="M418.508 217.857c0 26.37-21.379 47.749-47.744 47.749H97.549c-26.368 0-47.744-21.379-47.744-47.749V71.971c0-26.37 21.376-47.746 47.744-47.746h273.215c26.365 0 47.744 21.376 47.744 47.746v145.886z"/><path stroke-width="75" d="M234.156 266.126v58.771"/><path stroke-width="36" d="M297.649 324.897c0 .646-4.205 1.175-9.393 1.175H180.055c-5.187 0-9.391-.529-9.391-1.175s4.205-1.174 9.391-1.174h108.202c5.187.001 9.392.529 9.392 1.174z"/></g><path d="M336.257 204.777a8.609 8.609 0 0 0-5.854 8.611V333.96a8.608 8.608 0 0 0 8.612 8.612h120.569a8.61 8.61 0 0 0 8.612-8.612V213.389a8.608 8.608 0 0 0-8.612-8.611H339.016a8.17 8.17 0 0 0-1.548 0 10.488 10.488 0 0 0-1.034 0h-.177zm19.982 17.225c4.819 0 8.612 3.784 8.612 8.612 0 4.827-3.793 8.612-8.612 8.612s-8.612-3.785-8.612-8.612c0-4.828 3.793-8.612 8.612-8.612zm34.45 0h51.67c4.812 0 8.612 3.784 8.612 8.612 0 4.827-3.801 8.612-8.612 8.612h-51.67c-4.819 0-8.614-3.785-8.614-8.612 0-4.828 3.795-8.612 8.614-8.612zm-43.062 34.449h103.345v68.896H347.627v-68.896z"/><path fill="#FFF" d="M347.627 256.451h103.345v68.896H347.627z"/><path d="M296.522 63.968c-.546 0-.729.366-1.112.565L225.37 114.2c-.748.566-1.87 2.061-2.426 2.992l-2.426 4.668c13.442 4.286 23.729 14.574 28.016 28.018l4.668-2.428c.931-.564 2.245-1.495 2.975-2.427l49.685-70.039c.584-.93.766-1.678 0-2.426l-8.207-8.226c-.365-.366-.75-.566-1.132-.566v.202zm-89.265 74.145c-13.825 0-24.468 11.382-24.468 25.024 0 18.494-10.279 34.545-25.034 43.154 7.287 4.104 16.069 6.35 25.034 6.35 27.45 0 49.675-22.035 49.675-49.685 0-13.825-11.391-25.025-25.024-25.025l-.183.182zM421.072 267.436c-.195 0-.259.13-.395.203l-24.971 17.704c-.265.203-.665.734-.865 1.065l-.863 1.665c4.792 1.528 8.459 5.197 9.987 9.987l1.664-.866c.333-.199.801-.531 1.061-.862l17.711-24.97c.208-.331.274-.598 0-.864l-2.926-2.933c-.13-.13-.266-.201-.403-.201v.072zm-31.822 26.431c-4.929 0-8.72 4.056-8.72 8.92 0 6.594-3.665 12.315-8.925 15.385 2.597 1.462 5.728 2.263 8.925 2.263a17.66 17.66 0 0 0 17.708-17.713c0-4.929-4.062-8.92-8.921-8.92l-.067.065z"/></svg>