<svg xmlns="http://www.w3.org/2000/svg" width="500" height="350" viewBox="0 0 500 350"><g fill="none" stroke="#000" stroke-miterlimit="10"><path stroke-width="36" d="M398.361 219.064c0 26.669-21.619 48.288-48.285 48.288H73.782c-26.666 0-48.283-21.619-48.283-48.288V71.533c0-26.667 21.618-48.285 48.283-48.285h276.294c26.666 0 48.285 21.618 48.285 48.285v147.531z"/><path stroke-width="75" d="M211.929 267.879v59.434"/><path stroke-width="36" d="M276.14 327.313c0 .653-4.255 1.188-9.499 1.188H157.218c-5.246 0-9.498-.535-9.498-1.188 0-.652 4.252-1.187 9.498-1.187H266.64c5.245 0 9.5.534 9.5 1.187z"/></g><path d="M109.689 83.797c-6.659 1.06-11.196 7.33-10.135 14 1.073 6.646 7.33 11.195 14 10.134h36.202l2.168 6.034 9.899 30.169 9.899 30.168c.965 3.135 5.067 6.033 8.201 6.033h84.473c3.394 0 7.234-2.898 8.202-6.033l19.562-60.337c.942-3.134-.495-6.034-3.866-6.034H181.128l-9.169-17.37a12.072 12.072 0 0 0-10.617-6.764h-48.271a11.06 11.06 0 0 0-2.168 0 15.223 15.223 0 0 0-1.449 0h.235zm76.269 120.674c-6.751 0-12.066 5.303-12.066 12.068 0 6.764 5.315 12.066 12.066 12.066 6.753 0 12.068-5.303 12.068-12.066 0-6.766-5.315-12.068-12.068-12.068zm72.404 0c-6.739 0-12.067 5.303-12.067 12.068 0 6.764 5.328 12.066 12.067 12.066 6.74 0 12.067-5.303 12.067-12.066.001-6.766-5.326-12.068-12.067-12.068zM336.508 206.743a11.593 11.593 0 0 0-7.888 11.604v81.233h-23.21v34.813c0 6.506 5.111 11.605 11.604 11.605h162.692c6.506 0 11.605-5.1 11.605-11.605V299.58h-23.21v-81.233c0-6.414-5.189-11.604-11.603-11.604H340.45a10.992 10.992 0 0 0-2.084 0 14.09 14.09 0 0 0-1.394 0h-.464zm15.322 23.209h92.837v69.629h-23.211v23.209h-46.417v-23.209H351.83v-69.629z"/><path fill="#FFF" d="M444.667 229.952H351.83v69.629h23.209v23.209h46.417v-23.209h23.211z"/><path d="M394.455 236.982v7.892h-5.919c-5.369 0-9.865 4.501-9.865 9.864v3.946c0 5.363 3.473 9.786 8.601 11.128l20.206 5.209c1.103.309 2.683 2.281 2.683 3.467v3.947c0 1.11-.871 1.973-1.973 1.973h-19.729a4.447 4.447 0 0 1-1.973-.47v-7.422h-7.892v7.892c0 2.683 1.575 4.979 3.472 6.157 1.814 1.265 4.104 1.734 6.393 1.734h5.918v7.892h7.891V292.3h5.92c5.438 0 9.863-4.415 9.863-9.864v-3.947c0-5.361-3.475-9.784-8.6-11.126l-20.207-5.209c-1.102-.311-2.682-2.282-2.682-3.469v-3.946c0-1.108.867-1.973 1.974-1.973h19.728c.864 0 1.657.316 1.973.478v7.415h7.893v-7.893c0-2.681-1.581-4.97-3.469-6.156-1.818-1.258-4.108-1.735-6.396-1.735h-5.917v-7.892h-7.893z"/></svg>