<svg xmlns="http://www.w3.org/2000/svg" width="500" height="350" viewBox="0 0 500 350"><g fill="none" stroke="#000" stroke-miterlimit="10"><path stroke-width="36" d="M413.41 217.023c0 26.698-21.642 48.341-48.335 48.341H88.486c-26.694 0-48.335-21.643-48.335-48.341V69.335c0-26.695 21.641-48.336 48.335-48.336h276.589c26.693 0 48.335 21.641 48.335 48.336v147.688z"/><path stroke-width="75" d="M226.78 265.891v59.496"/><path stroke-width="36" d="M291.06 325.387c0 .655-4.26 1.19-9.51 1.19H172.011c-5.251 0-9.508-.535-9.508-1.19 0-.652 4.257-1.188 9.508-1.188H281.55c5.25 0 9.51.535 9.51 1.188z"/></g><path d="M348.509 138.132c-2.866 0-4.953 2.088-4.953 4.953v198.976c0 2.852 2.087 4.939 4.953 4.939h120.744c2.853 0 4.94-2.088 4.94-4.939V143.084c0-2.864-2.088-4.953-4.94-4.953H348.509zm21.123 26.076h78.23v130.384h-78.23V164.208zm39.115 143.425c7.296 0 13.039 5.729 13.039 13.037 0 7.308-5.743 13.038-13.039 13.038-7.295 0-13.038-5.73-13.038-13.038 0-7.309 5.743-13.037 13.038-13.037z"/><path fill="#FFF" d="M369.632 164.208h78.23v130.384h-78.23z"/><path d="M226.759 229.4c6.983-6.961 46.776-46.777 71.563-71.61 22.252-22.253 21.802-54.684 1.585-74.829-20.263-20.122-53.003-20.051-73.125.213-20.146-20.264-52.873-20.335-73.113-.213-20.217 20.146-20.702 52.576 1.551 74.829 24.821 24.833 64.603 64.649 71.539 71.61zM408.741 261.896a26441.58 26441.58 0 0 0 23.343-23.36c7.261-7.258 7.114-17.838.519-24.41-6.609-6.563-17.289-6.542-23.853.069-6.574-6.611-17.25-6.633-23.853-.069-6.593 6.572-6.754 17.152.506 24.41 8.096 8.101 21.074 21.089 23.338 23.36z"/></svg>