<svg xmlns="http://www.w3.org/2000/svg" width="500" height="350" viewBox="0 0 500 350"><g fill="none" stroke="#000" stroke-miterlimit="10"><path stroke-width="36" d="M388.518 216.345c0 25.978-21.059 47.036-47.032 47.036H72.355c-25.974 0-47.031-21.059-47.031-47.036V72.639c0-25.976 21.057-47.032 47.031-47.032h269.13c25.974 0 47.032 21.057 47.032 47.032v143.706z"/><path stroke-width="75" d="M206.92 263.894v57.892"/><path stroke-width="36" d="M269.466 321.786c0 .637-4.144 1.158-9.253 1.158H153.628c-5.109 0-9.251-.521-9.251-1.158 0-.636 4.142-1.156 9.251-1.156h106.585c5.109 0 9.253.52 9.253 1.156z"/></g><path d="M309.092 119.381c-4.959 0-9.378 4.418-9.378 9.379v201.733c0 4.958 4.419 9.376 9.378 9.376H483.23c4.959 0 9.378-4.418 9.378-9.376V128.76c0-4.96-4.419-9.379-9.378-9.379H309.092zm18.218 27.595h137.972V284.95H327.31V146.976zm68.985 151.77c10.484 0 17.382 11.588 12.141 20.697-5.241 9.108-18.769 9.108-24.281 0-5.241-9.109 1.375-20.697 12.14-20.697z"/><path fill="#FFF" d="M327.31 146.976h137.971V284.95H327.31"/><path d="M396.16 175.563l-10.101 30.301h-30.3l25.251 20.199-10.1 30.301 25.249-20.2 25.25 20.2-10.1-30.301 25.25-20.199H406.26l-10.1-30.301zM206.922 80.895l-15.9 47.7h-47.7l39.75 31.8-15.9 47.7 39.75-31.8 39.75 31.8-15.9-47.7 39.75-31.8h-47.7l-15.9-47.7z"/></svg>