<svg xmlns="http://www.w3.org/2000/svg" width="500" height="350" viewBox="0 0 500 350"><g fill="none" stroke="#000" stroke-miterlimit="10"><path stroke-width="36" d="M429.726 216.637c0 25.709-20.843 46.552-46.55 46.552H116.821c-25.707 0-46.546-20.843-46.546-46.552V74.412c0-25.708 20.839-46.549 46.546-46.549h266.354c25.707 0 46.55 20.841 46.55 46.549v142.225z"/><path stroke-width="75" d="M249.998 263.696v57.295"/><path stroke-width="36" d="M311.898 320.991c0 .629-4.1 1.146-9.156 1.146H197.256c-5.057 0-9.156-.517-9.156-1.146 0-.63 4.099-1.145 9.156-1.145h105.486c5.057.001 9.156.515 9.156 1.145z"/><g><path stroke-width="14" d="M169.243 157.586h58.789v58.79h-58.789z"/><circle stroke-width="14" cx="197.237" cy="97.948" r="31.127"/><g stroke-width="19"><path d="M275.42 69.493l56.911 56.91M275.42 126.403l56.911-56.91"/></g><path stroke-width="14" d="M303.923 162.885l-27.335 53.491h54.575z"/></g></g></svg>