<svg xmlns="http://www.w3.org/2000/svg" width="500" height="350" viewBox="0 0 500 350"><g fill="none" stroke="#000" stroke-miterlimit="10"><path stroke-width="36" d="M436.102 218.753c0 26.397-21.397 47.799-47.795 47.799H114.808c-26.396 0-47.794-21.4-47.794-47.799V72.715c0-26.398 21.398-47.797 47.794-47.797h273.499c26.396 0 47.795 21.398 47.795 47.797v146.038z"/><path stroke-width="75" d="M251.557 267.073v58.832"/><path stroke-width="36" d="M315.118 325.905c0 .647-4.214 1.178-9.404 1.178H197.4c-5.192 0-9.401-.529-9.401-1.178 0-.646 4.209-1.174 9.401-1.174h108.314c5.19 0 9.404.527 9.404 1.174z"/></g><path d="M256 68.735c-42.348 0-77 34.652-77 77h-25.667l38.5 51.333 38.5-51.333h-25.667a51.161 51.161 0 0 1 51.333-51.333L256 68.735zm64.167 25.666l-38.5 51.333h25.666A51.174 51.174 0 0 1 256 197.067v25.667c42.359 0 77-34.64 77-77h25.667l-38.5-51.333z"/></svg>